<svg width="38" height="44" viewBox="0 0 38 44" fill="none" xmlns="http://www.w3.org/2000/svg">
<path d="M20.9173 0.816101C20.3678 2.31846 14.0117 20.1428 14.0117 20.1984C14.0117 20.2355 14.2498 20.1242 14.5246 19.9573C15.1107 19.6049 15.8617 19.7347 16.3746 20.2541C16.7043 20.5879 16.9425 21.2371 20.899 32.7923C22.6757 37.9856 23.2435 39.859 23.2252 40.5081C23.1886 41.8806 22.2727 43.3459 21.1554 43.8096C20.844 43.9394 23.4817 43.9951 29.5813 43.9951C38.3185 44.0136 38.4467 43.9951 37.7324 43.6612C36.8898 43.2717 35.7541 42.0661 35.3878 41.1944C35.113 40.5452 31.9075 31.1972 25.5332 12.5753C23.4084 6.34331 21.5584 0.983028 21.4485 0.630623L21.2287 3.8147e-06L20.9173 0.816101Z" fill="white"/>
<path d="M11.1184 24.3729C10.6239 27.8969 9.4699 29.0098 5.75153 29.5662L4.21289 29.7888L6.0446 30.1041C8.1877 30.475 8.95702 30.7718 9.68971 31.5137C10.4041 32.2371 10.6971 33.0161 11.0818 35.112C11.265 36.0764 11.4298 36.6885 11.4298 36.4474C11.4665 35.4273 12.0709 33.0903 12.4739 32.3298C13.2066 30.9573 14.1408 30.475 16.9433 30.0299L18.3171 29.8073L17.0349 29.5662C13.0784 28.8799 12.1992 28.0267 11.6496 24.3543C11.5214 23.5938 11.4115 22.9632 11.3932 22.9261C11.3566 22.9076 11.2467 23.5568 11.1184 24.3729Z" fill="white"/>
<path d="M7.40011 38.0423C6.04465 40.5462 3.55352 42.7719 1.19061 43.588L0 43.9961H7.14367C11.5947 43.9775 13.9943 43.9219 13.4997 43.8106C10.8254 43.2913 8.7739 41.0285 8.27934 38.0608L8.05953 36.7996L7.40011 38.0423Z" fill="white"/>
</svg>
