<svg width="36" height="36" viewBox="0 0 36 36" fill="none" xmlns="http://www.w3.org/2000/svg">
<path d="M12.135 17.4452H5.1C5.22 10.4402 6.6 9.2852 10.905 6.7352C11.4 6.4352 11.565 5.8052 11.265 5.2952C10.98 4.8002 10.335 4.6352 9.84 4.9352C4.77 7.9352 3 9.7652 3 18.4802V26.5652C3 29.1302 5.085 31.2002 7.635 31.2002H12.135C14.775 31.2002 16.77 29.2052 16.77 26.5652V22.0652C16.77 19.4402 14.775 17.4452 12.135 17.4452Z" fill="#344054"/>
<path d="M28.3648 17.4452H21.3298C21.4498 10.4402 22.8298 9.2852 27.1348 6.7352C27.6298 6.4352 27.7948 5.8052 27.4948 5.2952C27.1948 4.8002 26.5648 4.6352 26.0548 4.9352C20.9848 7.9352 19.2148 9.7652 19.2148 18.4952V26.5802C19.2148 29.1452 21.2998 31.2152 23.8498 31.2152H28.3498C30.9898 31.2152 32.9848 29.2202 32.9848 26.5802V22.0802C32.9998 19.4402 31.0048 17.4452 28.3648 17.4452Z" fill="#344054"/>
</svg>
