<svg width="25" height="25" viewBox="0 0 25 25" fill="none" xmlns="http://www.w3.org/2000/svg">
<path d="M11.7655 2.00402L10.2466 4.04668L6.95581 3.28068C5.18383 2.83385 3.03215 2.51469 2.14617 2.51469C-0.195371 2.51469 0.184337 5.00418 2.8423 7.62134L5.05726 9.79166L2.46259 12.4727C0.817185 14.1323 -0.0688017 15.6005 0.121053 16.3026C0.310907 17.3878 0.88047 17.5155 5.7534 17.324L11.0693 17.1325L12.2717 19.1751C16.7649 26.8989 20.7519 26.9628 18.7268 19.239L17.8408 15.9196L19.4862 15.5366C24.3591 14.4515 24.992 14.1961 24.992 13.3025C24.992 12.7918 23.1567 11.4513 20.9417 10.3662C16.2587 8.00434 15.8157 7.49367 15.8157 4.30202C15.8157 -0.485468 14.3601 -1.3153 11.7655 2.00402ZM7.58866 6.98301C7.58866 7.30217 7.46209 7.62134 7.33552 7.62134C7.14566 7.62134 6.82924 7.30217 6.63938 6.98301C6.44953 6.60001 6.5761 6.34467 6.89252 6.34467C7.27223 6.34467 7.58866 6.60001 7.58866 6.98301ZM12.5249 9.02567C12.9679 9.4725 13.2843 10.813 13.2843 12.0258V14.3238L11.2592 12.2812C9.55048 10.5577 9.42391 10.1108 10.12 9.281C11.0693 8.06817 11.5123 8.00434 12.5249 9.02567ZM8.09493 13.877C8.2215 14.3238 7.65194 14.643 6.63938 14.643C5.12055 14.643 4.99398 14.5153 5.69011 13.6855C6.5761 12.6003 7.65194 12.6642 8.09493 13.877Z" fill="#B026FF"/>
</svg>
