<svg width="23" height="29" viewBox="0 0 23 29" fill="none" xmlns="http://www.w3.org/2000/svg">
<path d="M17.968 6.36269L15.557 7.16114L13.2989 4.63828C12.1026 3.25166 10.5224 1.75092 9.79661 1.24062C7.87854 -0.108026 6.76758 2.14995 7.44995 5.82469L8.02466 8.87827L4.36785 9.57996C2.07203 9.99178 0.507658 10.6841 0.262105 11.3687C-0.202217 12.3669 0.191418 12.7995 4.29247 15.4493L8.7564 18.3542L8.5746 20.72C7.84342 29.635 11.0729 31.9836 13.8258 24.4902L14.996 21.2609L16.5626 21.8949C21.1741 23.8126 21.8384 23.9679 22.3488 23.2359C22.6405 22.8176 21.9029 20.6625 20.7083 18.4978C18.2212 13.8658 18.15 13.1923 19.9731 10.5779C22.7077 6.65621 21.9894 5.13811 17.968 6.36269ZM11.7025 8.03554C11.5202 8.29699 11.2343 8.48554 11.1306 8.41264C10.9751 8.30329 10.8982 7.85959 10.925 7.4888C10.9882 7.06571 11.2377 6.92946 11.4969 7.1117C11.808 7.3304 11.9213 7.72181 11.7025 8.03554ZM14.5793 12.5519C14.6869 13.1731 14.1805 14.4534 13.4877 15.4469L12.1751 17.3293L11.683 14.4896C11.2678 12.0937 11.4193 11.6548 12.4635 11.3759C13.9339 10.9292 14.3332 11.1321 14.5793 12.5519ZM8.17945 13.9744C8.0279 14.4133 7.37904 14.3467 6.5496 13.7635C5.30544 12.8887 5.27469 12.7112 6.31892 12.4324C7.66452 12.0538 8.50934 12.7257 8.17945 13.9744Z" fill="#B026FF"/>
</svg>
