<svg width="55" height="50" viewBox="0 0 55 50" fill="none" xmlns="http://www.w3.org/2000/svg">
<g clip-path="url(#clip0_161_4114)">
<path d="M43.039 26.4717C36.432 26.4717 31.0769 31.7381 31.0769 38.2346C31.0769 44.7317 36.432 49.9992 43.039 49.9992C49.645 49.9992 55 44.7317 55 38.2346C55 31.7381 49.645 26.4717 43.039 26.4717ZM11.9616 26.4723C5.35563 26.4729 0 31.7381 0 38.2352C0 44.7317 5.35563 49.9986 11.9616 49.9986C18.568 49.9986 23.9237 44.7317 23.9237 38.2352C23.9237 31.7381 18.568 26.4723 11.961 26.4723H11.9616ZM39.4616 11.7674C39.4616 18.2639 34.1065 23.532 27.5006 23.532C20.8936 23.532 15.5385 18.2639 15.5385 11.7674C15.5385 5.27084 20.8936 0.00390625 27.5006 0.00390625C34.1065 0.00390625 39.461 5.27084 39.461 11.7674H39.4616Z" fill="url(#paint0_radial_161_4114)"/>
</g>
<defs>
<radialGradient id="paint0_radial_161_4114" cx="0" cy="0" r="1" gradientUnits="userSpaceOnUse" gradientTransform="translate(27.5074 27.3586) scale(36.465 33.1469)">
<stop stop-color="#FFB900"/>
<stop offset="0.6" stop-color="#F95D8F"/>
<stop offset="0.999" stop-color="#F95353"/>
</radialGradient>
<clipPath id="clip0_161_4114">
<rect width="55" height="50" fill="white"/>
</clipPath>
</defs>
</svg>
