<svg width="33" height="50" viewBox="0 0 33 50" fill="none" xmlns="http://www.w3.org/2000/svg">
<g clip-path="url(#clip0_161_4176)">
<path d="M8.25 49.9987C12.804 49.9987 16.5 46.2654 16.5 41.6654V33.332H8.25C3.696 33.332 0 37.0654 0 41.6654C0 46.2654 3.696 49.9987 8.25 49.9987Z" fill="#0ACF83"/>
<path d="M0 25.0013C0 20.4013 3.696 16.668 8.25 16.668H16.5V33.3346H8.25C3.696 33.3346 0 29.6013 0 25.0013Z" fill="#A259FF"/>
<path d="M0 8.33333C0 3.73333 3.696 0 8.25 0H16.5V16.6667H8.25C3.696 16.6667 0 12.9333 0 8.33333Z" fill="#F24E1E"/>
<path d="M16.5 0H24.75C29.304 0 33 3.73333 33 8.33333C33 12.9333 29.304 16.6667 24.75 16.6667H16.5V0Z" fill="#FF7262"/>
<path d="M33 25.0013C33 29.6013 29.304 33.3346 24.75 33.3346C20.196 33.3346 16.5 29.6013 16.5 25.0013C16.5 20.4013 20.196 16.668 24.75 16.668C29.304 16.668 33 20.4013 33 25.0013Z" fill="#1ABCFE"/>
</g>
<defs>
<clipPath id="clip0_161_4176">
<rect width="33" height="50" fill="white"/>
</clipPath>
</defs>
</svg>
