<svg width="50" height="50" viewBox="0 0 50 50" fill="none" xmlns="http://www.w3.org/2000/svg">
<g clip-path="url(#clip0_161_4217)">
<path d="M45.4825 0H4.5362C2.03625 0 0.00976562 2.02648 0.00976562 4.52644V45.4537C0.00976562 47.9726 2.03625 49.9991 4.5362 49.9991H45.4635C47.9635 49.9991 49.99 47.9726 49.99 45.4727V4.52644C50.0089 2.02648 47.9824 0 45.4825 0Z" fill="#FF3366"/>
<path d="M16.7133 15.7375C18.3799 15.7375 19.7624 14.4307 19.7624 12.7262C19.7624 11.0216 18.3609 9.71484 16.7133 9.71484C15.0466 9.71484 13.6641 11.0216 13.6641 12.7262C13.6641 14.4307 15.0656 15.7375 16.7133 15.7375Z" fill="white"/>
<path d="M10.3881 31.8539C10.2176 32.6114 10.1229 33.4447 10.1229 34.1076C10.1229 36.7591 11.5623 38.5204 14.6115 38.5204C17.1493 38.5204 19.1947 37.0242 20.672 34.5811L19.7629 38.1985H24.8007L27.6794 26.6646C28.3991 23.7479 29.7817 22.2328 31.9028 22.2328C33.5695 22.2328 34.5922 23.2745 34.5922 24.979C34.5922 25.4714 34.5543 26.0206 34.3649 26.5888L32.8877 31.8917C32.6604 32.6493 32.5657 33.4258 32.5657 34.1455C32.5657 36.6644 34.0429 38.5015 37.149 38.5015C39.8004 38.5015 41.9027 36.797 43.0769 32.7061L41.1072 31.9486C40.1224 34.6947 39.2701 35.1871 38.5883 35.1871C37.9065 35.1871 37.5467 34.7326 37.5467 33.8425C37.5467 33.4447 37.6414 32.9902 37.7739 32.441L39.2133 27.2706C39.5732 26.0585 39.7057 24.979 39.7057 23.9942C39.7057 20.1306 37.3762 18.123 34.5354 18.123C31.8839 18.123 29.1945 20.5094 27.8499 23.0283L28.8347 18.5208H21.1454L20.0659 22.498H23.6643L21.4485 31.3615C19.7061 35.225 16.5243 35.2818 16.1266 35.2061C15.4637 35.0546 15.0471 34.8084 15.0471 33.9561C15.0471 33.4637 15.1418 32.7629 15.369 31.8917L18.7402 18.5208H10.1987L9.11914 22.498H12.6607L10.3881 31.8539Z" fill="white"/>
</g>
<defs>
<clipPath id="clip0_161_4217">
<rect width="50" height="50" fill="white"/>
</clipPath>
</defs>
</svg>
