<svg width="50" height="45" viewBox="0 0 50 45" fill="none" xmlns="http://www.w3.org/2000/svg">
<path d="M25 0L10.9092 1.48173L0 16.0463L25 45L50 16.0463L39.091 1.48173L25 0Z" fill="#FDB300"/>
<path d="M0 16.0469L25 45.0004L10.1262 16.0469H0Z" fill="#EB6C00"/>
<path d="M39.8736 16.0469L25 45.0004L49.9998 16.0469H39.8736Z" fill="#EB6C00"/>
<path d="M10.125 16.0469L24.9988 45.0004L39.8727 16.0469H10.125Z" fill="#FDAD00"/>
<path d="M10.91 1.48173L10.127 16.0463L25.0008 0L10.91 1.48173Z" fill="#FDD231"/>
<path d="M39.8736 16.0463L39.0908 1.48153L25 0L39.8736 16.0463Z" fill="#FDD231"/>
<path d="M39.8729 16.0472H49.9988L39.0898 1.48242L39.8729 16.0472Z" fill="#FDAD00"/>
<path d="M0 16.0472H10.1262L10.9092 1.48242L0 16.0472Z" fill="#FDAD00"/>
<path d="M25.0008 0L10.127 16.0463H39.8746L25.0008 0Z" fill="#FEEEB7"/>
</svg>
