<svg width="50" height="50" viewBox="0 0 50 50" fill="none" xmlns="http://www.w3.org/2000/svg">
<g clip-path="url(#clip0_161_4190)">
<path d="M8.8543 0.625H41.1457C46.0418 0.625 50 4.5832 50 9.4793V40.5207C50 45.4168 46.0418 49.375 41.1457 49.375H8.8543C3.9582 49.375 0 45.4168 0 40.5207V9.4793C0 4.5832 3.9582 0.625 8.8543 0.625Z" fill="#470137"/>
<path d="M26.2931 13.4368L20.0431 23.7493L26.7095 34.6868C26.7513 34.77 26.772 34.8536 26.7513 34.9368C26.7306 35.02 26.647 34.9575 26.522 34.9786H21.7513C21.4181 34.9786 21.1888 34.9575 21.0431 34.7493C20.6056 33.8743 20.147 33.02 19.7095 32.145C19.272 31.2911 18.7931 30.4161 18.2931 29.52C17.7931 28.6243 17.2931 27.7286 16.7931 26.8118H16.7513C16.3138 27.7075 15.8345 28.6036 15.3556 29.4993C14.8795 30.3862 14.4073 31.2751 13.9388 32.1661C13.4595 33.0411 12.9806 33.9368 12.5013 34.7911C12.4181 34.9993 12.2513 35.02 12.022 35.02H7.43882C7.35561 35.02 7.29311 35.0618 7.29311 34.9575C7.28378 34.9186 7.28264 34.8781 7.28977 34.8387C7.2969 34.7993 7.31214 34.7618 7.33452 34.7286L13.8138 24.1036L7.50132 13.4161C7.43882 13.3325 7.41811 13.2493 7.45952 13.2075C7.50132 13.145 7.58452 13.1243 7.66811 13.1243H12.397C12.5013 13.1243 12.6056 13.145 12.6888 13.1661C12.772 13.2075 12.8345 13.27 12.897 13.3536C13.2931 14.2493 13.7513 15.145 14.2306 16.0411C14.7306 16.9368 15.2095 17.8118 15.7306 18.6868C16.2306 19.5618 16.6888 20.4368 17.1263 21.3325H17.1681C17.6056 20.4161 18.0638 19.52 18.522 18.645C18.9806 17.77 19.4595 16.895 19.9388 16.02C20.4181 15.145 20.8763 14.2493 21.3345 13.395C21.3556 13.3118 21.397 13.2286 21.4595 13.1868C21.5431 13.145 21.6263 13.1243 21.7306 13.145H26.1263C26.151 13.1395 26.1765 13.1389 26.2014 13.1432C26.2262 13.1476 26.25 13.1568 26.2713 13.1704C26.2926 13.184 26.311 13.2016 26.3255 13.2223C26.34 13.2431 26.3502 13.2664 26.3556 13.2911C26.3763 13.3118 26.3345 13.395 26.2931 13.4368ZM35.9181 35.4161C34.3763 35.4368 32.8345 35.1243 31.4388 34.4786C30.1263 33.8743 29.0431 32.8743 28.2931 31.645C27.522 30.3743 27.147 28.7911 27.147 26.895C27.1263 25.3536 27.522 23.8325 28.2931 22.4993C29.0845 21.145 30.2306 20.02 31.6056 19.27C33.0638 18.4575 34.8138 18.0618 36.8763 18.0618C36.9806 18.0618 37.1263 18.0618 37.3138 18.0825C37.5013 18.1036 37.7095 18.1036 37.9595 18.1243V11.5411C37.9595 11.395 38.022 11.3118 38.1681 11.3118H42.397C42.5013 11.2911 42.5845 11.3743 42.6056 11.4575V31.3325C42.6056 31.7075 42.6263 32.1243 42.647 32.5825C42.6888 33.02 42.7095 33.4368 42.7306 33.7911C42.7306 33.9368 42.6681 34.0618 42.522 34.1243C41.4308 34.5829 40.2919 34.9183 39.1263 35.1243C38.0638 35.3118 37.0013 35.4161 35.9181 35.4161ZM37.9595 31.2493V22.0825C37.772 22.0411 37.5845 21.9993 37.397 21.9786C37.1686 21.9542 36.9392 21.9402 36.7095 21.9368C35.897 21.9368 35.0845 22.1036 34.3556 22.4786C33.6436 22.8332 33.034 23.3638 32.5845 24.02C32.1263 24.6868 31.897 25.5825 31.897 26.6661C31.8789 27.3973 31.9991 28.1253 32.2513 28.8118C32.4595 29.3743 32.772 29.8743 33.1888 30.2911C33.5905 30.6744 34.0754 30.9596 34.6056 31.1243C35.1681 31.3118 35.7513 31.395 36.3345 31.395C36.647 31.395 36.9388 31.3743 37.2095 31.3536C37.4806 31.3743 37.7095 31.3325 37.9595 31.2493Z" fill="#FF61F6"/>
</g>
<defs>
<clipPath id="clip0_161_4190">
<rect width="50" height="50" fill="white"/>
</clipPath>
</defs>
</svg>
