<svg width="50" height="40" viewBox="0 0 50 40" fill="none" xmlns="http://www.w3.org/2000/svg">
<g clip-path="url(#clip0_161_4231)">
<path d="M7.70534 27.5293L5.08966 28.4839L4.94922 36.2577L14.0038 32.9532C10.8982 31.911 8.63028 30.0774 7.70534 27.5293Z" fill="#FDBD39"/>
<path d="M9.07553 19.3086L0 22.6208L5.091 28.4854L7.70668 27.5308C6.78444 24.9901 7.35318 22.1181 9.07553 19.3086Z" fill="#F69833"/>
<path d="M24.3472 8.09095C12.7904 12.3087 5.33977 21.012 7.70586 27.5304L49.5569 12.2566C47.1908 5.73818 35.9041 3.8732 24.3472 8.09095Z" fill="#FECF33"/>
<path d="M32.9167 31.6953C44.4735 27.4775 51.9382 18.8128 49.5581 12.2559L7.70703 27.5297C10.0871 34.0866 21.3599 35.913 32.9167 31.6953Z" fill="#EE6723"/>
<path d="M49.5581 12.2559L7.70703 27.5297C8.52653 29.7873 11.6516 30.8996 16.0365 30.8996C20.3114 30.8996 25.7836 29.8432 31.4886 27.7611C43.0455 23.5433 51.1765 16.7146 49.5581 12.2559Z" fill="#F69833"/>
<path d="M41.2269 8.88672C36.952 8.88672 31.4797 9.94313 25.7747 12.0252C14.2178 16.243 6.08681 23.0717 7.70528 27.5305L49.5563 12.2567C48.7368 9.99899 45.6117 8.88672 41.2269 8.88672Z" fill="#FDBD39"/>
<path d="M38.9174 36.6701H38.9171C37.6858 36.6701 35.8692 35.5589 33.5177 33.3675C30.7359 30.7749 27.5492 26.9776 24.5447 22.675C21.5403 18.3727 19.0715 14.0714 17.5932 10.5633C15.9825 6.74043 15.7528 4.38987 16.9106 3.57688C17.1644 3.39881 17.4704 3.30859 17.82 3.30859C18.7618 3.30859 20.5967 4.00905 23.9898 7.34619L24.064 7.41912L24.054 7.52284C24.0308 7.76258 24.0094 8.00447 23.9903 8.24187L23.9525 8.71329L23.6196 8.37824C19.9637 4.69862 18.3543 4.30137 17.832 4.30137C17.6831 4.30137 17.5645 4.33162 17.4794 4.39134C16.9773 4.74386 16.9449 6.47041 18.5065 10.1763C19.9584 13.6218 22.3913 17.8581 25.3569 22.1047C28.3226 26.3517 31.4605 30.093 34.1927 32.6392C37.1389 35.3849 38.4665 35.6814 38.9006 35.6814C39.0505 35.6814 39.1723 35.6492 39.2626 35.5857C39.7924 35.2139 39.793 33.3643 38.0516 29.3755L37.9716 29.1924L38.1466 29.0967C38.3217 29.001 38.4909 28.9067 38.6497 28.8166L38.8593 28.6976L38.956 28.9188C40.1907 31.7451 41.3449 35.3373 39.8315 36.4002C39.5763 36.5793 39.2688 36.6701 38.9174 36.6701ZM38.9171 36.2341H38.9174L38.9172 36.4521L38.9171 36.2341Z" fill="#EE6723"/>
<path d="M33.196 31.576L33.1784 31.7932C32.8863 35.4049 32.117 39.7471 30.1111 39.9228C30.0708 39.9264 30.0289 39.9283 29.9871 39.9283C28.6245 39.9283 27.3353 37.9778 26.1555 34.1311C25.0393 30.4918 24.173 25.6056 23.7165 20.3724C23.2598 15.1404 23.2667 10.1775 23.7357 6.39824C24.247 2.27996 25.2203 0.129261 26.6284 0.00580983C26.67 0.00197593 26.7132 0 26.7558 0C27.7443 0 29.234 1.1182 30.7592 6.32657L29.7633 6.51859C29.2541 4.77809 28.6992 3.3625 28.1483 2.38978C27.6387 1.49006 27.1432 0.994571 26.753 0.994571C26.7401 0.994571 26.7272 0.995102 26.7145 0.996193C26.1041 1.04975 25.2153 2.52884 24.7197 6.52104C24.259 10.2325 24.2535 15.121 24.704 20.2859C25.1549 25.4516 26.007 30.2648 27.1032 33.8389C27.5941 35.4396 28.1326 36.7588 28.6605 37.654C29.1472 38.4795 29.6182 38.9341 29.9868 38.9341C29.9995 38.9341 30.0121 38.9335 30.0247 38.9325C30.6087 38.8813 31.7092 37.3422 32.1724 31.9269L33.196 31.576Z" fill="#EE6723"/>
</g>
<defs>
<clipPath id="clip0_161_4231">
<rect width="50" height="40" fill="white"/>
</clipPath>
</defs>
</svg>
