<?xml version="1.0" standalone="no"?>
<!DOCTYPE svg PUBLIC "-//W3C//DTD SVG 20010904//EN"
 "http://www.w3.org/TR/2001/REC-SVG-20010904/DTD/svg10.dtd">
<svg version="1.0" xmlns="http://www.w3.org/2000/svg"
 width="700.000000pt" height="700.000000pt" viewBox="0 0 700.000000 700.000000"
 preserveAspectRatio="xMidYMid meet">
<metadata>
Created by potrace 1.14, written by Peter Selinger 2001-2017
</metadata>
<g transform="translate(0.000000,700.000000) scale(0.100000,-0.100000)"
fill="#000000" stroke="none">
<path d="M3205 6993 c-27 -2 -126 -15 -220 -28 -611 -88 -1188 -339 -1685
-733 -135 -107 -449 -426 -554 -562 -434 -563 -673 -1169 -737 -1870 -15 -161
-6 -606 15 -755 92 -651 321 -1194 722 -1715 114 -149 435 -470 584 -584 525
-404 1049 -624 1725 -723 173 -25 716 -25 894 0 661 95 1199 321 1721 723 133
102 465 429 560 552 423 544 646 1069 747 1757 25 173 25 716 0 894 -96 668
-339 1241 -745 1751 -100 125 -400 426 -528 528 -547 437 -1188 696 -1889 762
-101 9 -493 11 -610 3z m602 -1733 c427 -1246 979 -2856 1049 -3054 68 -194
91 -249 125 -292 43 -56 105 -111 154 -136 27 -15 17 -16 -178 -23 -114 -4
-445 -4 -735 0 -488 7 -525 9 -502 23 44 29 88 80 117 139 24 50 28 69 27 143
0 101 -17 155 -269 888 -292 852 -300 873 -349 903 -38 23 -106 25 -146 4
l-30 -15 45 127 c291 824 580 1622 584 1612 2 -8 51 -151 108 -319z m-912
-1979 c49 -148 139 -210 379 -261 89 -19 123 -29 106 -33 -14 -3 -65 -13 -115
-22 -271 -49 -337 -114 -405 -398 -11 -45 -20 -95 -21 -112 l-1 -30 -9 30 c-5
17 -20 80 -33 140 -57 264 -128 322 -461 381 l-100 18 86 12 c187 27 294 68
364 139 72 71 102 150 136 355 l12 75 23 -123 c12 -67 30 -145 39 -171z m-334
-1023 c45 -226 195 -410 387 -474 l63 -22 -463 -7 c-255 -3 -512 -5 -573 -3
l-110 3 55 19 c231 78 477 302 591 538 13 26 25 46 27 43 2 -2 13 -46 23 -97z"/>
</g>
</svg>
